<svg xmlns="http://www.w3.org/2000/svg" viewBox="0 0 300 300"><defs><style>.a{fill:#6b6b6b;}</style></defs><path class="a" d="M249,187.89c0-.62-1-15.5-14.71-27.3-11-9.43-26.64-14.07-46.73-13.71a58.54,58.54,0,1,0-79-1.66c-17.75-.39-47.58,4.33-57.35,38.19a6.74,6.74,0,0,0-.24,1.8v63.94a6.51,6.51,0,0,0,6.5,6.51h185a6.52,6.52,0,0,0,6.51-6.51ZM135.13,159.76a10.84,10.84,0,0,0,4.72,8.86l-.62,2.36-5.95-11.71Zm14.73,10.76h1l5,10.34L150,192.23l-3.86-7.6Zm4.2-10.17h-8.12a.64.64,0,0,1-.64-.64.64.64,0,0,1,.64-.64h8.12a.64.64,0,0,1,.64.64A.64.64,0,0,1,154.06,160.35Zm10.79-1.13c.86-.25,1.72-.51,2.57-.8l-5.73,11.13-.75-1.56a10.73,10.73,0,0,0,3.92-8.28C164.86,159.55,164.86,159.38,164.85,159.22ZM150,213a6.48,6.48,0,0,0,5.78-3.53l25.38-49.32c19.89-1.4,34.87,2,44.5,10.16,9.18,7.8,10.24,17.21,10.32,18.07v54.23H64V186.15c9.79-31.93,42.94-29.11,54.57-27l25.61,50.37A6.51,6.51,0,0,0,150,213Zm-.78-64.13h-.46a46,46,0,1,1,.46,0Z"/></svg>